<svg width="267" height="267" viewBox="0 0 267 267" fill="none" xmlns="http://www.w3.org/2000/svg">
<g clip-path="url(#clip0_26_2388)">
<path d="M267 204.202H0V204.335H267V204.202Z" fill="#EBEBEB"/>
<path d="M232.648 212.794H222.561V212.927H232.648V212.794Z" fill="#EBEBEB"/>
<path d="M172.226 211.864H156.489V211.998H172.226V211.864Z" fill="#EBEBEB"/>
<path d="M222.026 207.838H196.87V207.971H222.026V207.838Z" fill="#EBEBEB"/>
<path d="M33.8717 208.735H28.0137V208.868H33.8717V208.735Z" fill="#EBEBEB"/>
<path d="M59.2153 208.735H38.6243V208.868H59.2153V208.735Z" fill="#EBEBEB"/>
<path d="M120.23 210.989H91.314V211.122H120.23V210.989Z" fill="#EBEBEB"/>
<path d="M126.558 180.385H23.448C22.6402 180.384 21.866 180.062 21.2954 179.49C20.7247 178.918 20.4042 178.144 20.4042 177.336V32.3923C20.4112 31.5892 20.7348 30.8213 21.3047 30.2554C21.8746 29.6894 22.6448 29.3712 23.448 29.3699H126.558C127.367 29.3699 128.142 29.6911 128.714 30.2629C129.286 30.8348 129.607 31.6103 129.607 32.419V177.336C129.607 178.145 129.286 178.92 128.714 179.492C128.142 180.064 127.367 180.385 126.558 180.385ZM23.448 29.4767C22.6756 29.4781 21.9354 29.7859 21.3898 30.3325C20.8441 30.8792 20.5377 31.62 20.5377 32.3923V177.336C20.5377 178.108 20.8441 178.849 21.3898 179.396C21.9354 179.942 22.6756 180.25 23.448 180.252H126.558C127.331 180.25 128.072 179.943 128.618 179.396C129.165 178.85 129.472 178.109 129.474 177.336V32.3923C129.472 31.6195 129.165 30.8787 128.618 30.3322C128.072 29.7857 127.331 29.4781 126.558 29.4767H23.448Z" fill="#EBEBEB"/>
<path d="M242.067 180.385H138.952C138.144 180.384 137.369 180.062 136.798 179.49C136.226 178.919 135.904 178.144 135.903 177.336V32.3923C135.911 31.5887 136.236 30.8208 136.807 30.255C137.378 29.6893 138.148 29.3712 138.952 29.3699H242.067C242.87 29.3727 243.639 29.6915 244.207 30.2572C244.776 30.823 245.099 31.5901 245.106 32.3923V177.336C245.106 178.143 244.786 178.917 244.217 179.488C243.647 180.06 242.874 180.382 242.067 180.385ZM138.952 29.4767C138.179 29.4781 137.438 29.7857 136.892 30.3322C136.345 30.8787 136.038 31.6195 136.036 32.3923V177.336C136.038 178.109 136.345 178.85 136.892 179.396C137.438 179.943 138.179 180.25 138.952 180.252H242.067C242.84 180.25 243.581 179.943 244.128 179.396C244.674 178.85 244.982 178.109 244.983 177.336V32.3923C244.982 31.6195 244.674 30.8787 244.128 30.3322C243.581 29.7857 242.84 29.4781 242.067 29.4767H138.952Z" fill="#EBEBEB"/>
<path d="M232.648 212.794H222.561V212.927H232.648V212.794Z" fill="#EBEBEB"/>
<path d="M172.226 211.864H156.489V211.998H172.226V211.864Z" fill="#EBEBEB"/>
<path d="M222.026 207.838H196.87V207.971H222.026V207.838Z" fill="#EBEBEB"/>
<path d="M33.8717 208.735H28.0137V208.868H33.8717V208.735Z" fill="#EBEBEB"/>
<path d="M59.2153 208.735H38.6243V208.868H59.2153V208.735Z" fill="#EBEBEB"/>
<path d="M120.23 210.989H91.314V211.122H120.23V210.989Z" fill="#EBEBEB"/>
<path d="M203.913 89.1727H216.211V86.6201H203.913V89.1727Z" fill="#E6E6E6"/>
<path d="M70.5681 89.1727L203.919 89.1727V86.6201L70.5681 86.6201V89.1727Z" fill="#F0F0F0"/>
<path d="M146.204 44.167H178.799L173.662 86.6253H141.067L146.204 44.167Z" fill="#F5F5F5"/>
<path d="M152.137 49.7312H171.521L167.735 81.0557H148.345L152.137 49.7312Z" fill="#FAFAFA"/>
<path d="M98.9555 46.1053H138.498L133.596 86.6253H94.0587L98.9555 46.1053Z" fill="#F5F5F5"/>
<path d="M104.616 51.4135H131.551L127.936 81.3122H101.001L104.616 51.4135Z" fill="#FAFAFA"/>
<path d="M167.478 58.7023H194.723L191.348 86.6252H164.098L167.478 58.7023Z" fill="#F0F0F0"/>
<path d="M171.377 62.3605H189.938L187.445 82.9623H168.883L171.377 62.3605Z" fill="#FAFAFA"/>
<path d="M232.477 123.204H215.635C212.668 123.248 209.8 124.275 207.48 126.125C205.161 127.975 203.521 130.543 202.819 133.425L198.37 152.008L189.228 151.976H189.196C187.083 151.976 185.036 152.713 183.408 154.06C181.781 155.408 180.674 157.28 180.278 159.356L179.061 165.716C178.14 165.856 177.282 166.267 176.595 166.895C175.907 167.523 175.422 168.341 175.2 169.246H181.656L174.084 204.201H176.017L183.611 169.246H188.919L181.298 204.201H183.231L190.825 169.246H211.998L219.591 204.201H221.525L213.931 169.246H219.239L226.833 204.201H228.766L221.172 169.246H220.376C223.344 169.21 226.214 168.187 228.535 166.338C230.856 164.489 232.495 161.92 233.192 159.036L239.6 132.336C239.888 131.252 239.921 130.116 239.697 129.017C239.472 127.918 238.996 126.886 238.306 126.001C237.616 125.117 236.731 124.404 235.72 123.919C234.708 123.434 233.598 123.189 232.477 123.204ZM196.699 158.908C196.236 160.815 195.152 162.514 193.618 163.738C192.084 164.961 190.187 165.641 188.224 165.668H181.475L182.607 159.794C182.902 158.263 183.72 156.883 184.921 155.889C186.122 154.895 187.632 154.35 189.191 154.347L197.767 154.374L196.699 158.908Z" fill="#E6E6E6"/>
<path d="M103.479 199.866H121.864L121.864 118.607H103.479L103.479 199.866Z" fill="#F0F0F0"/>
<path d="M37.4067 204.202H118.34V199.866H37.4067V204.202Z" fill="#F0F0F0"/>
<path d="M103.484 118.607H33.8716V199.866H103.484V118.607Z" fill="#F5F5F5"/>
<path d="M96.2588 127.028H41.1019V162.32H96.2588V127.028Z" fill="#F0F0F0"/>
<path d="M96.2588 169.011H41.1019V191.444H96.2588V169.011Z" fill="#F0F0F0"/>
<path d="M54.3612 128.427H82.9942C83.7551 128.427 84.3719 127.81 84.3719 127.049V126.729C84.3719 125.968 83.7551 125.351 82.9942 125.351H54.3612C53.6003 125.351 52.9834 125.968 52.9834 126.729V127.049C52.9834 127.81 53.6003 128.427 54.3612 128.427Z" fill="#F5F5F5"/>
<path d="M54.3612 170.554H82.9942C83.7551 170.554 84.3719 169.937 84.3719 169.176V168.856C84.3719 168.095 83.7551 167.478 82.9942 167.478H54.3612C53.6003 167.478 52.9834 168.095 52.9834 168.856V169.176C52.9834 169.937 53.6003 170.554 54.3612 170.554Z" fill="#F5F5F5"/>
<path d="M175.825 123.204H158.982C156.016 123.248 153.148 124.275 150.828 126.125C148.508 127.975 146.869 130.542 146.166 133.425L141.718 152.008L132.576 151.976C130.462 151.975 128.414 152.711 126.785 154.059C125.156 155.406 124.048 157.279 123.653 159.356L122.435 165.716C121.515 165.857 120.657 166.267 119.97 166.896C119.283 167.524 118.797 168.342 118.575 169.246H125.036L117.411 204.201H119.338L126.932 169.246H132.272L124.652 204.201H126.558L134.151 169.246H155.33L162.923 204.201H164.851L157.258 169.246H162.598L170.186 204.201H172.113L164.52 169.246H163.724C166.691 169.21 169.562 168.187 171.883 166.338C174.204 164.489 175.843 161.92 176.54 159.036L182.948 132.336C183.235 131.252 183.267 130.116 183.042 129.017C182.817 127.919 182.341 126.887 181.651 126.003C180.962 125.119 180.077 124.406 179.066 123.921C178.055 123.435 176.946 123.19 175.825 123.204ZM140.047 158.908C139.582 160.815 138.497 162.513 136.962 163.737C135.427 164.961 133.53 165.64 131.567 165.668H124.828L125.96 159.794C126.254 158.263 127.072 156.881 128.273 155.887C129.475 154.894 130.985 154.349 132.544 154.347L141.125 154.374L140.047 158.908Z" fill="#E6E6E6"/>
<path d="M133.5 228.317C190.682 228.317 237.037 225.61 237.037 222.272C237.037 218.933 190.682 216.227 133.5 216.227C76.318 216.227 29.9628 218.933 29.9628 222.272C29.9628 225.61 76.318 228.317 133.5 228.317Z" fill="#F5F5F5"/>
<path d="M80.5966 57.6718C80.9651 51.2158 94.6141 51.8566 97.2948 57.8801C99.9755 63.9036 97.7754 69.4412 105.214 73.0777C118.366 79.4857 119.798 87.9977 114.826 96.3761C109.854 104.755 90.4383 110.623 79.8757 96.9101C69.4574 83.3732 85.2958 80.3561 77.0989 73.9855C69.954 68.3999 70.5628 58.4515 80.5966 57.6718Z" fill="#263238"/>
<path d="M74.76 88.7558C74.5837 88.9694 74.4876 89.0762 74.3648 89.215C74.242 89.3538 74.1245 89.4713 74.007 89.5995C73.7667 89.8398 73.5264 90.0801 73.2861 90.299C72.8002 90.7529 72.3036 91.1694 71.8016 91.5753C70.7927 92.3655 69.7351 93.0914 68.635 93.7487C67.5514 94.3974 66.4337 94.9874 65.2868 95.5162C64.7101 95.7725 64.1387 96.0502 63.5566 96.2638L62.6809 96.6002L62.243 96.7658C61.9876 96.8623 61.7252 96.939 61.458 96.9954C60.7962 97.14 60.1073 97.0989 59.4674 96.8765C58.8275 96.6541 58.2616 96.2591 57.8322 95.7351C57.2761 95.0476 56.8753 94.2479 56.6574 93.3909C56.3185 92.0932 56.1392 90.759 56.1234 89.4179C56.0885 86.9469 56.2978 84.4786 56.7481 82.0487L59.1405 82.2463C59.2181 84.544 59.4141 86.8361 59.7279 89.1135C59.8662 90.1442 60.1132 91.1573 60.4648 92.136C60.5567 92.4345 60.7177 92.7071 60.9347 92.9316C60.9721 92.9316 60.9347 92.8836 60.7959 92.8142C60.7032 92.7795 60.6061 92.758 60.5075 92.7501C60.5075 92.7501 60.5075 92.7501 60.5716 92.7127L60.9507 92.5258L61.7143 92.1627L63.2095 91.3937C64.1868 90.8597 65.1533 90.299 66.0718 89.6849C66.9903 89.0708 67.8874 88.4407 68.7418 87.7572C69.1636 87.4208 69.5748 87.0737 69.9593 86.6892C70.1569 86.513 70.3384 86.3314 70.52 86.1552L70.7817 85.8989L70.9739 85.6906L74.76 88.7558Z" fill="#FFC3BD"/>
<path d="M74.8668 81.2801C72.907 80.7995 67.9248 87.2502 67.9248 87.2502L70.9526 93.0121C70.9526 93.0121 79.3204 88.2862 79.0053 85.6856C78.6742 82.9729 77.7237 81.9796 74.8668 81.2801Z" fill="#0C918B"/>
<path opacity="0.2" d="M74.8668 81.2801C72.907 80.7995 67.9248 87.2502 67.9248 87.2502L70.9526 93.0121C70.9526 93.0121 79.3204 88.2862 79.0053 85.6856C78.6742 82.9729 77.7237 81.9796 74.8668 81.2801Z" fill="black"/>
<path opacity="0.2" d="M73.5691 83.512L74.0497 91.0574C72.3836 92.1949 70.9471 93.0119 70.9471 93.0119L70.317 91.805L73.5691 83.512Z" fill="black"/>
<path d="M58.7827 83.8378L60.9881 78.925L56.2996 80.0411C56.2996 80.0411 55.4879 82.9781 56.919 84.3131L58.7827 83.8378Z" fill="#FFC3BD"/>
<path d="M60.7157 75.4113L56.6894 75.7477L56.2996 80.0464L60.9881 78.9303L60.7157 75.4113Z" fill="#FFC3BD"/>
<path d="M79.2082 214.977L74.4823 215.164L73.6439 204.185L78.3698 204.004L79.2082 214.977Z" fill="#FFC3BD"/>
<path d="M121.293 174.612L118.212 178.212L108.877 172.242L111.958 168.637L121.293 174.612Z" fill="#FFC3BD"/>
<path d="M117.176 178.009L120 173.491C120.047 173.412 120.122 173.353 120.21 173.326C120.297 173.298 120.392 173.304 120.476 173.342L124.369 175.061C124.462 175.108 124.544 175.174 124.611 175.254C124.678 175.334 124.728 175.427 124.757 175.527C124.787 175.627 124.795 175.732 124.783 175.836C124.77 175.939 124.736 176.039 124.684 176.129C123.669 177.688 123.082 178.388 121.864 180.374C121.1 181.597 119.862 184.112 118.804 185.784C117.747 187.455 116.027 186.515 116.316 185.72C117.608 182.147 117.234 180.433 117.005 178.815C116.967 178.535 117.028 178.25 117.176 178.009Z" fill="#263238"/>
<path d="M74.3274 214.887L79.4538 213.45C79.5418 213.423 79.6368 213.429 79.7206 213.468C79.8044 213.506 79.871 213.574 79.9077 213.659L81.6272 217.552C81.6658 217.653 81.6825 217.761 81.676 217.87C81.6695 217.978 81.64 218.084 81.5895 218.18C81.539 218.276 81.4686 218.36 81.383 218.426C81.2974 218.493 81.1986 218.541 81.0932 218.566C79.2989 219.036 78.4232 219.175 76.1537 219.805C74.7653 220.195 70.7122 222.021 68.7257 222.181C66.7392 222.342 66.4829 220.382 67.2946 220.141C69.9082 219.369 72.154 217.677 73.6172 215.378C73.7873 215.135 74.0394 214.96 74.3274 214.887Z" fill="#263238"/>
<g opacity="0.2">
<path d="M73.6439 204.191L74.0765 209.852L78.8024 209.665L78.3698 204.004L73.6439 204.191Z" fill="black"/>
<path d="M111.958 168.637L108.877 172.242L113.694 175.318L116.775 171.713L111.958 168.637Z" fill="black"/>
</g>
<path d="M72.3943 83.2502C71.935 85.9202 71.4971 92.702 73.4623 108.466L92.6863 109.651C92.8358 102.282 93.2203 96.3439 97.2092 82.1021C97.3088 81.7508 97.3285 81.3816 97.2667 81.0216C97.205 80.6617 97.0634 80.3201 96.8524 80.0221C96.6414 79.724 96.3663 79.477 96.0473 79.2991C95.7284 79.1212 95.3736 79.0171 95.0092 78.9942C93.546 78.9088 91.7037 78.8501 89.824 78.9302C86.8633 78.9947 83.9104 79.2624 80.9863 79.7312C78.4925 80.1797 75.7638 80.8739 74.1778 81.2958C73.7241 81.4156 73.3145 81.6637 72.9982 82.0103C72.6818 82.3569 72.4722 82.7874 72.3943 83.2502Z" fill="#0C918B"/>
<path opacity="0.2" d="M72.3943 83.2502C71.935 85.9202 71.4971 92.702 73.4623 108.466L92.6863 109.651C92.8358 102.282 93.2203 96.3439 97.2092 82.1021C97.3088 81.7508 97.3285 81.3816 97.2667 81.0216C97.205 80.6617 97.0634 80.3201 96.8524 80.0221C96.6414 79.724 96.3663 79.477 96.0473 79.2991C95.7284 79.1212 95.3736 79.0171 95.0092 78.9942C93.546 78.9088 91.7037 78.8501 89.824 78.9302C86.8633 78.9947 83.9104 79.2624 80.9863 79.7312C78.4925 80.1797 75.7638 80.8739 74.1778 81.2958C73.7241 81.4156 73.3145 81.6637 72.9982 82.0103C72.6818 82.3569 72.4722 82.7874 72.3943 83.2502Z" fill="black"/>
<path d="M73.4623 108.466C73.4623 108.466 67.4815 144.682 66.8994 159.127C66.296 174.153 73.0565 208.329 73.0565 208.329H79.4645C79.4645 208.329 77.1255 175.702 78.6047 161.001C80.2067 144.981 87.5385 109.331 87.5385 109.331L73.4623 108.466Z" fill="#263238"/>
<path d="M80.0199 208.559H72.5012L71.9458 206.161L80.367 205.867L80.0199 208.559Z" fill="#0C918B"/>
<path opacity="0.2" d="M81.1947 118.046C75.8867 127.247 78.5888 144.799 79.8597 151.346C81.3122 141.734 83.4855 129.986 85.1516 121.362C84.7351 116.412 83.6404 113.801 81.1947 118.046Z" fill="black"/>
<path d="M78.5406 108.776C78.5406 108.776 81.2106 152.158 84.5214 158.16C89.792 167.676 112.14 175.478 112.14 175.478L116.337 170.565C116.337 170.565 102.357 158.94 94.9772 152.334C93.2203 140.335 99.4307 121.4 92.7184 109.652L78.5406 108.776Z" fill="#263238"/>
<path d="M93.0388 108.541L93.4233 110.292C93.482 110.431 93.3165 110.554 93.0922 110.543L73.3342 109.32C73.158 109.32 73.0191 109.214 73.0191 109.107L72.9497 107.377C72.9497 107.254 73.0992 107.163 73.2915 107.174L92.7344 108.402C92.7926 108.398 92.8508 108.409 92.9038 108.434C92.9569 108.458 93.0032 108.495 93.0388 108.541Z" fill="#0C918B"/>
<path d="M90.2887 110.538L90.8227 110.57C90.9241 110.57 91.0096 110.527 91.0042 110.463L90.8974 108.215C90.8974 108.146 90.8066 108.087 90.7052 108.081L90.1712 108.049C90.0697 108.049 89.9843 108.092 89.9896 108.156L90.0964 110.41C90.0964 110.49 90.1872 110.538 90.2887 110.538Z" fill="#263238"/>
<path d="M74.76 109.598L75.294 109.63C75.4008 109.63 75.4809 109.587 75.4809 109.523L75.3741 107.27C75.3741 107.206 75.2833 107.147 75.1765 107.142L74.6425 107.11C74.5357 107.11 74.4556 107.152 74.4609 107.216L74.5624 109.465C74.5784 109.534 74.6639 109.593 74.76 109.598Z" fill="#263238"/>
<path d="M82.5296 110.079L83.0636 110.111C83.1651 110.111 83.2505 110.068 83.2452 109.998L83.1384 107.75C83.1384 107.686 83.0476 107.627 82.9461 107.617L82.4121 107.585C82.3107 107.585 82.2252 107.627 82.2306 107.697L82.3374 109.945C82.3374 110.004 82.4282 110.068 82.5296 110.079Z" fill="#263238"/>
<path d="M116.844 170.01L111.633 176.108L109.166 175.12L114.97 167.671L116.844 170.01Z" fill="#0C918B"/>
<path d="M74.7867 97.7484C74.1929 97.8784 73.6599 98.2036 73.2727 98.6721C72.8855 99.1406 72.6665 99.7254 72.6507 100.333C72.5928 100.211 72.5231 100.094 72.4424 99.9859C72.3448 99.8377 72.2301 99.7014 72.1007 99.58C71.9713 99.4545 71.83 99.3418 71.6788 99.2436C71.5295 99.1467 71.3701 99.0661 71.2035 99.0033C71.0316 98.9352 70.8524 98.8868 70.6695 98.8591C70.4937 98.8245 70.3147 98.8084 70.1355 98.8111C69.9562 98.8186 69.7776 98.8401 69.6015 98.8752C69.2504 98.9504 68.918 99.0957 68.6243 99.3024C68.4773 99.4016 68.3413 99.5161 68.2185 99.6441C68.0962 99.7749 67.9854 99.9161 67.8874 100.066C67.7887 100.217 67.7064 100.378 67.6418 100.547C67.5789 100.72 67.5307 100.899 67.4976 101.081C67.4687 101.257 67.4562 101.436 67.4602 101.615C67.4594 101.974 67.5359 102.329 67.6845 102.656C67.757 102.82 67.8446 102.978 67.9461 103.126C68.0454 103.271 68.16 103.405 68.2879 103.526C68.4162 103.653 68.5576 103.766 68.7098 103.863C68.8591 103.96 69.0184 104.04 69.185 104.103C69.3579 104.169 69.5367 104.217 69.719 104.247C69.8517 104.268 69.9854 104.28 70.1195 104.285C69.5792 104.551 69.1427 104.989 68.8783 105.53C68.614 106.071 68.5369 106.685 68.6591 107.274C68.7813 107.864 69.096 108.397 69.5536 108.788C70.0112 109.18 70.586 109.408 71.1875 109.438C70.6502 109.711 70.2185 110.154 69.9597 110.699C69.701 111.243 69.6298 111.858 69.7573 112.447C69.8847 113.036 70.2037 113.567 70.6643 113.955C71.125 114.344 71.7014 114.569 72.3036 114.596C71.7656 114.871 71.3346 115.318 71.0788 115.865C70.823 116.413 70.7569 117.03 70.8911 117.619C71.0252 118.209 71.3519 118.736 71.8195 119.119C72.2871 119.502 72.8689 119.718 73.473 119.733C73.0374 119.952 72.6686 120.284 72.405 120.694C72.2128 120.997 72.0821 121.334 72.0206 121.688C71.9874 121.864 71.9731 122.043 71.9778 122.222C71.9752 122.59 72.0517 122.954 72.2021 123.29C72.2736 123.453 72.3613 123.608 72.4638 123.754C72.5649 123.901 72.6812 124.037 72.8109 124.16C72.9386 124.287 73.078 124.401 73.2274 124.502C73.8383 124.888 74.5769 125.019 75.2833 124.865C75.4668 124.829 75.6459 124.774 75.8173 124.699C75.9794 124.628 76.1348 124.542 76.2819 124.443C76.4278 124.34 76.5637 124.224 76.6877 124.096C76.8132 123.968 76.9242 123.826 77.0188 123.674C77.1175 123.523 77.1998 123.362 77.2645 123.194C77.3303 123.021 77.3786 122.842 77.4086 122.66C77.4334 122.526 77.4477 122.39 77.4513 122.254C77.7196 122.797 78.1615 123.236 78.7071 123.5C79.2528 123.764 79.8709 123.838 80.4636 123.712C81.0564 123.585 81.5898 123.264 81.9795 122.799C82.3692 122.335 82.5929 121.754 82.6151 121.148C82.8858 121.69 83.3296 122.127 83.8761 122.388C84.4227 122.65 85.0409 122.722 85.6328 122.592C86.2248 122.463 86.7567 122.14 87.1444 121.674C87.5322 121.209 87.7536 120.627 87.7736 120.022C88.0459 120.562 88.4903 120.997 89.0368 121.257C89.5833 121.518 90.2008 121.589 90.7922 121.46C91.3836 121.331 91.9153 121.009 92.3037 120.544C92.692 120.08 92.9149 119.5 92.9373 118.895C93.2097 119.435 93.6541 119.87 94.2006 120.13C94.747 120.391 95.3646 120.462 95.956 120.333C96.5474 120.204 97.0791 119.882 97.4674 119.418C97.8558 118.953 98.0787 118.373 98.1011 117.768C98.3708 118.313 98.8153 118.751 99.3635 119.014C99.9117 119.276 100.532 119.347 101.125 119.216C101.719 119.084 102.251 118.757 102.637 118.288C103.023 117.818 103.24 117.233 103.254 116.625C103.312 116.748 103.382 116.864 103.462 116.972C103.56 117.121 103.675 117.257 103.804 117.378C103.934 117.505 104.075 117.62 104.226 117.72C104.376 117.816 104.535 117.896 104.701 117.96C104.874 118.026 105.053 118.074 105.235 118.105C105.411 118.137 105.59 118.152 105.769 118.147C105.949 118.147 106.128 118.127 106.303 118.088C106.652 118.004 106.982 117.86 107.281 117.661C107.425 117.557 107.561 117.441 107.686 117.314C107.809 117.183 107.92 117.042 108.018 116.892C108.117 116.742 108.197 116.581 108.258 116.412C108.324 116.248 108.374 116.078 108.407 115.904C108.437 115.728 108.452 115.549 108.45 115.37C108.443 115.004 108.367 114.641 108.226 114.302C108.151 114.14 108.062 113.984 107.959 113.838C107.86 113.691 107.745 113.555 107.617 113.432C107.486 113.308 107.345 113.196 107.195 113.096C107.045 113 106.886 112.919 106.72 112.855C106.547 112.79 106.368 112.741 106.186 112.711C106.055 112.691 105.923 112.678 105.791 112.674C106.331 112.408 106.768 111.97 107.032 111.428C107.296 110.887 107.373 110.274 107.251 109.684C107.129 109.094 106.814 108.562 106.357 108.17C105.899 107.779 105.324 107.55 104.723 107.521C105.258 107.246 105.687 106.802 105.944 106.258C106.2 105.714 106.27 105.101 106.142 104.513C106.014 103.925 105.696 103.397 105.236 103.009C104.777 102.621 104.202 102.395 103.601 102.368C104.138 102.091 104.567 101.644 104.821 101.097C105.076 100.55 105.142 99.9343 105.009 99.3459C104.876 98.7575 104.551 98.2299 104.085 97.8461C103.62 97.4622 103.04 97.2438 102.437 97.2251C102.557 97.1665 102.673 97.1005 102.784 97.0275C103.077 96.8208 103.328 96.5619 103.527 96.2639C103.622 96.1139 103.703 95.9547 103.767 95.7887C103.834 95.6165 103.883 95.4374 103.911 95.2546C103.943 95.0784 103.959 94.8997 103.959 94.7206C103.954 94.5411 103.932 94.3624 103.895 94.1867C103.739 93.4808 103.31 92.8655 102.702 92.4752C102.093 92.0849 101.355 91.9515 100.648 92.104C100.475 92.1439 100.305 92.1993 100.141 92.2696C99.9761 92.341 99.8186 92.4286 99.6711 92.5312C99.5251 92.6318 99.3892 92.7463 99.2652 92.873C99.1445 93.0052 99.0339 93.1462 98.9342 93.2949C98.8372 93.4461 98.7567 93.6072 98.6939 93.7755C98.6257 93.9474 98.5774 94.1266 98.5497 94.3095C98.5244 94.4434 98.5101 94.5791 98.507 94.7153C98.242 94.1711 97.8032 93.7307 97.26 93.4636C96.7168 93.1965 96.1001 93.118 95.5074 93.2405C94.9146 93.363 94.3795 93.6794 93.9866 94.1399C93.5937 94.6004 93.3655 95.1786 93.3378 95.7833C93.0641 95.2454 92.6198 94.8134 92.0744 94.555C91.5289 94.2965 90.9132 94.2262 90.3236 94.355C89.7339 94.4838 89.2036 94.8045 88.8157 95.2668C88.4277 95.7291 88.2039 96.307 88.1794 96.91C87.907 96.3695 87.4627 95.9348 86.9162 95.6744C86.3697 95.414 85.7522 95.3428 85.1608 95.4718C84.5694 95.6009 84.0376 95.9229 83.6493 96.3872C83.261 96.8516 83.038 97.4319 83.0156 98.0368C82.7419 97.4989 82.2976 97.0669 81.7521 96.8085C81.2067 96.55 80.591 96.4797 80.0014 96.6085C79.4117 96.7373 78.8814 97.0579 78.4934 97.5203C78.1055 97.9826 77.8817 98.5605 77.8572 99.1635C77.5789 98.6169 77.1246 98.1799 76.5675 97.9232C76.0104 97.6664 75.3831 97.6049 74.7867 97.7484Z" fill="#0C918B"/>
<path opacity="0.7" d="M74.7867 97.7484C74.1929 97.8784 73.6599 98.2036 73.2727 98.6721C72.8855 99.1406 72.6665 99.7254 72.6507 100.333C72.5928 100.211 72.5231 100.094 72.4424 99.9859C72.3448 99.8377 72.2301 99.7014 72.1007 99.58C71.9713 99.4545 71.83 99.3418 71.6788 99.2436C71.5295 99.1467 71.3701 99.0661 71.2035 99.0033C71.0316 98.9352 70.8524 98.8868 70.6695 98.8591C70.4937 98.8245 70.3147 98.8084 70.1355 98.8111C69.9562 98.8186 69.7776 98.8401 69.6015 98.8752C69.2504 98.9504 68.918 99.0957 68.6243 99.3024C68.4773 99.4016 68.3413 99.5161 68.2185 99.6441C68.0962 99.7749 67.9854 99.9161 67.8874 100.066C67.7887 100.217 67.7064 100.378 67.6418 100.547C67.5789 100.72 67.5307 100.899 67.4976 101.081C67.4687 101.257 67.4562 101.436 67.4602 101.615C67.4594 101.974 67.5359 102.329 67.6845 102.656C67.757 102.82 67.8446 102.978 67.9461 103.126C68.0454 103.271 68.16 103.405 68.2879 103.526C68.4162 103.653 68.5576 103.766 68.7098 103.863C68.8591 103.96 69.0184 104.04 69.185 104.103C69.3579 104.169 69.5367 104.217 69.719 104.247C69.8517 104.268 69.9854 104.28 70.1195 104.285C69.5792 104.551 69.1427 104.989 68.8783 105.53C68.614 106.071 68.5369 106.685 68.6591 107.274C68.7813 107.864 69.096 108.397 69.5536 108.788C70.0112 109.18 70.586 109.408 71.1875 109.438C70.6502 109.711 70.2185 110.154 69.9597 110.699C69.701 111.243 69.6298 111.858 69.7573 112.447C69.8847 113.036 70.2037 113.567 70.6643 113.955C71.125 114.344 71.7014 114.569 72.3036 114.596C71.7656 114.871 71.3346 115.318 71.0788 115.865C70.823 116.413 70.7569 117.03 70.8911 117.619C71.0252 118.209 71.3519 118.736 71.8195 119.119C72.2871 119.502 72.8689 119.718 73.473 119.733C73.0374 119.952 72.6686 120.284 72.405 120.694C72.2128 120.997 72.0821 121.334 72.0206 121.688C71.9874 121.864 71.9731 122.043 71.9778 122.222C71.9752 122.59 72.0517 122.954 72.2021 123.29C72.2736 123.453 72.3613 123.608 72.4638 123.754C72.5649 123.901 72.6812 124.037 72.8109 124.16C72.9386 124.287 73.078 124.401 73.2274 124.502C73.8383 124.888 74.5769 125.019 75.2833 124.865C75.4668 124.829 75.6459 124.774 75.8173 124.699C75.9794 124.628 76.1348 124.542 76.2819 124.443C76.4278 124.34 76.5637 124.224 76.6877 124.096C76.8132 123.968 76.9242 123.826 77.0188 123.674C77.1175 123.523 77.1998 123.362 77.2645 123.194C77.3303 123.021 77.3786 122.842 77.4086 122.66C77.4334 122.526 77.4477 122.39 77.4513 122.254C77.7196 122.797 78.1615 123.236 78.7071 123.5C79.2528 123.764 79.8709 123.838 80.4636 123.712C81.0564 123.585 81.5898 123.264 81.9795 122.799C82.3692 122.335 82.5929 121.754 82.6151 121.148C82.8858 121.69 83.3296 122.127 83.8761 122.388C84.4227 122.65 85.0409 122.722 85.6328 122.592C86.2248 122.463 86.7567 122.14 87.1444 121.674C87.5322 121.209 87.7536 120.627 87.7736 120.022C88.0459 120.562 88.4903 120.997 89.0368 121.257C89.5833 121.518 90.2008 121.589 90.7922 121.46C91.3836 121.331 91.9153 121.009 92.3037 120.544C92.692 120.08 92.9149 119.5 92.9373 118.895C93.2097 119.435 93.6541 119.87 94.2006 120.13C94.747 120.391 95.3646 120.462 95.956 120.333C96.5474 120.204 97.0791 119.882 97.4674 119.418C97.8558 118.953 98.0787 118.373 98.1011 117.768C98.3708 118.313 98.8153 118.751 99.3635 119.014C99.9117 119.276 100.532 119.347 101.125 119.216C101.719 119.084 102.251 118.757 102.637 118.288C103.023 117.818 103.24 117.233 103.254 116.625C103.312 116.748 103.382 116.864 103.462 116.972C103.56 117.121 103.675 117.257 103.804 117.378C103.934 117.505 104.075 117.62 104.226 117.72C104.376 117.816 104.535 117.896 104.701 117.96C104.874 118.026 105.053 118.074 105.235 118.105C105.411 118.137 105.59 118.152 105.769 118.147C105.949 118.147 106.128 118.127 106.303 118.088C106.652 118.004 106.982 117.86 107.281 117.661C107.425 117.557 107.561 117.441 107.686 117.314C107.809 117.183 107.92 117.042 108.018 116.892C108.117 116.742 108.197 116.581 108.258 116.412C108.324 116.248 108.374 116.078 108.407 115.904C108.437 115.728 108.452 115.549 108.45 115.37C108.443 115.004 108.367 114.641 108.226 114.302C108.151 114.14 108.062 113.984 107.959 113.838C107.86 113.691 107.745 113.555 107.617 113.432C107.486 113.308 107.345 113.196 107.195 113.096C107.045 113 106.886 112.919 106.72 112.855C106.547 112.79 106.368 112.741 106.186 112.711C106.055 112.691 105.923 112.678 105.791 112.674C106.331 112.408 106.768 111.97 107.032 111.428C107.296 110.887 107.373 110.274 107.251 109.684C107.129 109.094 106.814 108.562 106.357 108.17C105.899 107.779 105.324 107.55 104.723 107.521C105.258 107.246 105.687 106.802 105.944 106.258C106.2 105.714 106.27 105.101 106.142 104.513C106.014 103.925 105.696 103.397 105.236 103.009C104.777 102.621 104.202 102.395 103.601 102.368C104.138 102.091 104.567 101.644 104.821 101.097C105.076 100.55 105.142 99.9343 105.009 99.3459C104.876 98.7575 104.551 98.2299 104.085 97.8461C103.62 97.4622 103.04 97.2438 102.437 97.2251C102.557 97.1665 102.673 97.1005 102.784 97.0275C103.077 96.8208 103.328 96.5619 103.527 96.2639C103.622 96.1139 103.703 95.9547 103.767 95.7887C103.834 95.6165 103.883 95.4374 103.911 95.2546C103.943 95.0784 103.959 94.8997 103.959 94.7206C103.954 94.5411 103.932 94.3624 103.895 94.1867C103.739 93.4808 103.31 92.8655 102.702 92.4752C102.093 92.0849 101.355 91.9515 100.648 92.104C100.475 92.1439 100.305 92.1993 100.141 92.2696C99.9761 92.341 99.8186 92.4286 99.6711 92.5312C99.5251 92.6318 99.3892 92.7463 99.2652 92.873C99.1445 93.0052 99.0339 93.1462 98.9342 93.2949C98.8372 93.4461 98.7567 93.6072 98.6939 93.7755C98.6257 93.9474 98.5774 94.1266 98.5497 94.3095C98.5244 94.4434 98.5101 94.5791 98.507 94.7153C98.242 94.1711 97.8032 93.7307 97.26 93.4636C96.7168 93.1965 96.1001 93.118 95.5074 93.2405C94.9146 93.363 94.3795 93.6794 93.9866 94.1399C93.5937 94.6004 93.3655 95.1786 93.3378 95.7833C93.0641 95.2454 92.6198 94.8134 92.0744 94.555C91.5289 94.2965 90.9132 94.2262 90.3236 94.355C89.7339 94.4838 89.2036 94.8045 88.8157 95.2668C88.4277 95.7291 88.2039 96.307 88.1794 96.91C87.907 96.3695 87.4627 95.9348 86.9162 95.6744C86.3697 95.414 85.7522 95.3428 85.1608 95.4718C84.5694 95.6009 84.0376 95.9229 83.6493 96.3872C83.261 96.8516 83.038 97.4319 83.0156 98.0368C82.7419 97.4989 82.2976 97.0669 81.7521 96.8085C81.2067 96.55 80.591 96.4797 80.0014 96.6085C79.4117 96.7373 78.8814 97.0579 78.4934 97.5203C78.1055 97.9826 77.8817 98.5605 77.8572 99.1635C77.5789 98.6169 77.1246 98.1799 76.5675 97.9232C76.0104 97.6664 75.3831 97.6049 74.7867 97.7484Z" fill="white"/>
<path d="M99.3647 96.3024L72.4689 102.167C71.9329 102.284 71.5931 102.813 71.71 103.349L75.315 119.883C75.4319 120.419 75.9611 120.758 76.497 120.642L103.393 114.777C103.929 114.66 104.269 114.131 104.152 113.595L100.547 97.0613C100.43 96.5253 99.9006 96.1856 99.3647 96.3024Z" fill="white"/>
<path d="M97.1879 83.608C98.1224 85.9576 98.9341 88.2911 99.6764 90.6835C100.419 93.0758 101.097 95.4895 101.641 97.9565C101.711 98.2663 101.775 98.5813 101.839 98.891L101.93 99.3556L101.978 99.5906L102.015 99.8149C102.034 99.9119 102.046 100.01 102.053 100.109C102.094 100.634 102 101.162 101.78 101.641C101.539 102.148 101.159 102.578 100.686 102.88C100.366 103.08 100.016 103.226 99.6497 103.313C99.3899 103.373 99.1255 103.412 98.8593 103.43C98.0787 103.467 97.2965 103.406 96.5311 103.248C95.872 103.121 95.2197 102.961 94.5767 102.768C92.1374 102.017 89.7725 101.042 87.5118 99.8576L88.3662 97.6148C90.7105 98.1488 93.1082 98.7202 95.3937 99.0779C95.9651 99.1687 96.5258 99.2328 97.0598 99.2702C97.5076 99.3181 97.9598 99.3091 98.4054 99.2435C98.5389 99.2435 98.6084 99.1313 98.3307 99.2755C98.1142 99.4103 97.9417 99.6051 97.8341 99.8362C97.7406 100.033 97.6931 100.248 97.6952 100.466C97.6952 100.509 97.6952 100.509 97.6952 100.53C97.6952 100.552 97.6952 100.589 97.6952 100.53L97.6365 100.317L97.519 99.8843C97.4389 99.6013 97.3695 99.3129 97.2787 99.0299C96.6219 96.739 95.8743 94.4482 95.0946 92.1573C94.315 89.8664 93.4926 87.5809 92.6596 85.3381L97.1879 83.608Z" fill="#FFC3BD"/>
<path d="M96.5312 79.2186C98.4162 79.9235 100.323 86.6946 100.323 86.6946L92.5208 91.57C92.5208 91.57 90.0431 85.0338 91.0043 82.5988C92.0082 80.057 94.3738 78.4123 96.5312 79.2186Z" fill="#0C918B"/>
<path opacity="0.2" d="M96.5312 79.2186C98.4162 79.9235 100.323 86.6946 100.323 86.6946L92.5208 91.57C92.5208 91.57 90.0431 85.0338 91.0043 82.5988C92.0082 80.057 94.3738 78.4123 96.5312 79.2186Z" fill="black"/>
<path d="M116.412 180.438H116.358C116.253 180.464 116.142 180.462 116.037 180.434C115.931 180.406 115.834 180.353 115.755 180.278C115.699 180.238 115.656 180.184 115.629 180.12C115.603 180.057 115.595 179.988 115.606 179.92C115.686 179.322 117.234 178.591 117.41 178.51C117.428 178.498 117.45 178.491 117.472 178.491C117.494 178.491 117.515 178.498 117.533 178.51C117.55 178.524 117.562 178.543 117.568 178.564C117.573 178.585 117.573 178.607 117.565 178.628C117.341 179.247 116.946 180.23 116.412 180.438ZM117.261 178.836C116.647 179.141 115.867 179.637 115.824 179.952C115.822 179.982 115.827 180.013 115.84 180.04C115.853 180.067 115.874 180.091 115.899 180.107C115.95 180.158 116.013 180.195 116.082 180.214C116.151 180.234 116.224 180.236 116.294 180.219C116.583 180.155 116.946 179.643 117.234 178.858L117.261 178.836Z" fill="#0C918B"/>
<path d="M117.325 178.805C116.791 179.013 115.664 179.13 115.307 178.805C115.243 178.743 115.202 178.661 115.19 178.573C115.178 178.484 115.197 178.395 115.242 178.319C115.277 178.24 115.33 178.171 115.395 178.115C115.461 178.06 115.538 178.02 115.622 177.998C116.284 177.801 117.443 178.532 117.491 178.532C117.508 178.543 117.522 178.558 117.531 178.576C117.541 178.593 117.545 178.613 117.544 178.634C117.544 178.653 117.538 178.673 117.528 178.69C117.517 178.706 117.503 178.72 117.485 178.73L117.325 178.805ZM115.654 178.212C115.608 178.228 115.566 178.254 115.53 178.287C115.495 178.32 115.466 178.36 115.445 178.404C115.387 178.538 115.445 178.596 115.445 178.634C115.686 178.858 116.625 178.81 117.17 178.634C116.77 178.415 116.065 178.1 115.67 178.212H115.654Z" fill="#0C918B"/>
<path d="M72.8375 216.163C72.4571 216.307 72.0386 216.316 71.6521 216.189C71.5606 216.145 71.4812 216.079 71.4208 215.997C71.3603 215.915 71.3206 215.82 71.305 215.72C71.2932 215.658 71.2968 215.595 71.3155 215.535C71.3341 215.476 71.3672 215.422 71.4118 215.378C71.8817 214.919 73.9643 215.335 74.1992 215.378C74.2216 215.381 74.2421 215.392 74.2576 215.409C74.273 215.425 74.2826 215.446 74.2847 215.469C74.2894 215.492 74.2862 215.516 74.2755 215.537C74.2649 215.559 74.2474 215.576 74.2259 215.586C73.7819 215.821 73.3171 216.014 72.8375 216.163ZM71.7695 215.447C71.698 215.461 71.6316 215.495 71.5773 215.543C71.5589 215.56 71.5456 215.581 71.539 215.605C71.5324 215.628 71.5327 215.653 71.5399 215.677C71.5489 215.743 71.5734 215.806 71.6115 215.861C71.6496 215.915 71.7001 215.96 71.7589 215.992C72.106 216.163 72.8696 215.992 73.8361 215.543C73.1543 215.393 72.4517 215.36 71.7589 215.447H71.7695Z" fill="#0C918B"/>
<path d="M74.226 215.602H74.1833C73.5692 215.506 72.2128 214.828 72.1541 214.283C72.1541 214.155 72.1861 213.979 72.4745 213.867C72.5772 213.822 72.6881 213.799 72.8002 213.799C72.9123 213.799 73.0232 213.822 73.1259 213.867C73.8362 214.187 74.2847 215.383 74.3007 215.437C74.3113 215.453 74.3169 215.471 74.3169 215.49C74.3169 215.509 74.3113 215.528 74.3007 215.544C74.294 215.559 74.2837 215.572 74.2707 215.582C74.2576 215.593 74.2423 215.599 74.226 215.602ZM72.624 214.059H72.5599C72.3677 214.134 72.373 214.219 72.3783 214.246C72.4157 214.566 73.3609 215.138 74.0124 215.314C73.8228 214.808 73.4815 214.374 73.0352 214.07C72.904 214.016 72.7578 214.012 72.624 214.059Z" fill="#0C918B"/>
<path d="M89.824 78.7381C86.8615 78.8022 83.9068 79.0699 80.981 79.5391C79.913 79.7314 78.8076 79.9663 77.777 80.2066C76.9813 81.0557 75.5983 85.3491 77.1522 88.254C78.1775 86.5345 79.9023 85.05 81.0504 84.8791C82.3106 85.2209 83.5549 87.1273 83.8592 88.8094C85.9205 88.4356 90.3794 83.6135 92.9372 79.7314L93.5887 78.7274C92.3819 78.6901 91.1216 78.6847 89.824 78.7381Z" fill="#0C918B"/>
<path d="M89.5517 69.2223C88.8201 72.0685 87.9497 77.2323 89.8187 78.9304C89.8187 78.9304 88.0565 81.798 83.5816 82.316C78.6581 82.8927 80.981 79.7314 80.981 79.7314C84.185 78.7008 84.2597 76.3939 83.8432 74.2686L89.5517 69.2223Z" fill="#FFC3BD"/>
<path d="M80.981 79.7315C80.981 79.7315 79.0105 81.8088 80.8849 85.6055C84.8472 83.7632 88.6439 81.5792 89.8187 78.9412L80.981 79.7315Z" fill="#FFC3BD"/>
<path opacity="0.2" d="M87.2235 71.278L83.8433 74.2684C83.9493 74.7673 84.0083 75.275 84.0195 75.7849C85.2423 75.5019 87.2609 74.2844 87.4691 73.0295C87.5058 72.4351 87.4222 71.8394 87.2235 71.278Z" fill="black"/>
<path d="M93.3004 65.7834C91.6237 70.1782 91.0042 72.0739 88.0245 73.6652C83.5336 76.0629 78.5033 73.0405 78.8344 68.2345C79.1334 63.9037 81.8248 57.4423 86.7696 57.0205C87.8617 56.9209 88.9611 57.1033 89.9626 57.5502C90.964 57.997 91.834 58.6935 92.4894 59.5728C93.1447 60.4521 93.5634 61.4848 93.7054 62.5722C93.8474 63.6596 93.708 64.7653 93.3004 65.7834Z" fill="#FFC3BD"/>
<path d="M83.3039 57.0097C85.3118 56.5451 85.9739 58.836 82.4602 59.6423C78.9465 60.4487 81.6699 57.3942 83.3039 57.0097Z" fill="#263238"/>
<path d="M85.4026 55.7977C82.535 56.8657 83.8006 60.1604 87.0526 61.1003C90.3047 62.0401 89.2207 67.5563 92.1363 68.7685C95.0519 69.9807 96.5952 60.7051 94.0801 58.0885C91.5649 55.4719 87.3303 55.0714 85.4026 55.7977Z" fill="#263238"/>
<path d="M82.7218 64.5018C82.1367 65.2326 81.4539 65.8794 80.6926 66.4242C80.8373 66.6147 81.0215 66.7716 81.2326 66.8841C81.4437 66.9965 81.6767 67.0619 81.9155 67.0757L82.7218 64.5018Z" fill="#ED847E"/>
<path d="M83.4588 69.126C83.2779 69.0961 83.0995 69.0532 82.9248 68.9979C82.8965 68.9892 82.8729 68.9698 82.8589 68.9438C82.8449 68.9178 82.8417 68.8874 82.85 68.859C82.8608 68.8312 82.8814 68.8082 82.908 68.7944C82.9345 68.7807 82.9652 68.7771 82.9942 68.7843C83.4444 68.9363 83.9241 68.9802 84.3944 68.9125C84.8647 68.8448 85.3125 68.6673 85.7016 68.3945C85.712 68.3838 85.7245 68.3753 85.7382 68.3696C85.752 68.3638 85.7668 68.3608 85.7817 68.3608C85.7966 68.3608 85.8114 68.3638 85.8251 68.3696C85.8389 68.3753 85.8513 68.3838 85.8618 68.3945C85.882 68.4162 85.8933 68.4448 85.8933 68.4746C85.8933 68.5043 85.882 68.5329 85.8618 68.5547C85.5207 68.8074 85.1318 68.9884 84.7188 69.0866C84.3058 69.1848 83.8771 69.1982 83.4588 69.126Z" fill="#263238"/>
<path d="M93.4072 69.7883C92.8456 70.5046 92.0245 70.9708 91.1216 71.0859C89.9255 71.2247 89.5196 70.1087 90.0002 69.0781C90.4435 68.1489 91.6022 66.9421 92.7236 67.2945C92.9682 67.3729 93.1893 67.511 93.3669 67.6964C93.5446 67.8818 93.6732 68.1086 93.7411 68.3562C93.8089 68.6038 93.8139 68.8645 93.7556 69.1146C93.6973 69.3646 93.5776 69.5962 93.4072 69.7883Z" fill="#FFC3BD"/>
<path d="M88.3022 64.6138C88.2572 64.6008 88.2172 64.5745 88.1876 64.5382C88.1581 64.502 88.1403 64.4575 88.1366 64.4108C88.0726 63.3695 86.9351 62.6593 86.9245 62.654C86.8961 62.6403 86.871 62.6209 86.8506 62.5969C86.8303 62.5729 86.8152 62.5449 86.8064 62.5147C86.7976 62.4845 86.7953 62.4528 86.7995 62.4216C86.8038 62.3904 86.8146 62.3605 86.8311 62.3338C86.8477 62.307 86.8697 62.2841 86.8957 62.2664C86.9217 62.2487 86.9512 62.2367 86.9821 62.2312C87.0131 62.2256 87.0449 62.2266 87.0754 62.2341C87.106 62.2417 87.1346 62.2555 87.1594 62.2748C87.2182 62.3069 88.5051 63.1132 88.5799 64.3788C88.5828 64.4084 88.5796 64.4383 88.5706 64.4667C88.5616 64.495 88.5469 64.5213 88.5274 64.5438C88.5079 64.5663 88.4841 64.5845 88.4573 64.5975C88.4305 64.6104 88.4013 64.6178 88.3716 64.6191L88.3022 64.6138Z" fill="#263238"/>
<path d="M85.8458 65.148C85.7229 65.4791 85.4453 65.682 85.2263 65.6072C85.0074 65.5325 84.9273 65.1907 85.0501 64.8543C85.1729 64.5178 85.4506 64.3203 85.6695 64.395C85.8885 64.4698 85.9739 64.8062 85.8458 65.148Z" fill="#263238"/>
<path d="M81.702 63.6847C81.5792 64.0158 81.3015 64.2187 81.0826 64.1439C80.8636 64.0692 80.7835 63.7274 80.9117 63.391C81.0398 63.0546 81.3122 62.857 81.5311 62.9317C81.7501 63.0065 81.8302 63.3483 81.702 63.6847Z" fill="#263238"/>
<path d="M81.6218 63.0119L80.9062 62.4779C80.9062 62.4779 81.0878 63.2362 81.6218 63.0119Z" fill="#263238"/>
<path d="M85.7604 64.4429L85.0448 63.9089C85.0448 63.9089 85.2264 64.6939 85.7604 64.4429Z" fill="#263238"/>
<path d="M80.7567 60.876C80.7176 60.8762 80.6791 60.8659 80.6453 60.8461C80.6115 60.8264 80.5836 60.798 80.5645 60.7638C80.5357 60.7121 80.5285 60.651 80.5445 60.594C80.5605 60.537 80.5984 60.4886 80.6499 60.4594C80.9546 60.2737 81.2996 60.1642 81.6556 60.14C82.0116 60.1158 82.3682 60.1778 82.6952 60.3206C82.7483 60.3475 82.7885 60.3944 82.8071 60.451C82.8256 60.5076 82.8209 60.5692 82.794 60.6223C82.7671 60.6754 82.7201 60.7157 82.6636 60.7342C82.607 60.7527 82.5454 60.748 82.4922 60.7211C82.2341 60.6143 81.9543 60.5703 81.6758 60.5926C81.3974 60.6149 81.1281 60.7028 80.8902 60.8493C80.8509 60.8751 80.803 60.8847 80.7567 60.876Z" fill="#263238"/>
<path d="M88.9911 97.8392L85.7604 93.8609L84.8579 98.5974C84.8579 98.5974 87.2022 100.536 89.0231 99.7936L88.9911 97.8392Z" fill="#FFC3BD"/>
<path d="M82.8928 93.2043L81.3335 96.9744L84.8579 98.5977L85.7604 93.8611L82.8928 93.2043Z" fill="#FFC3BD"/>
<path d="M218.912 127.814L218.407 127.863L219.064 134.698L219.569 134.65L218.912 127.814Z" fill="#0C918B"/>
<path d="M219.808 137.029L219.303 137.078L219.568 139.836L220.073 139.788L219.808 137.029Z" fill="#0C918B"/>
<path d="M97.9115 196.236L222.56 184.255L215.428 110.051L90.7795 122.031L97.9115 196.236Z" fill="#0C918B"/>
<path opacity="0.1" d="M97.9115 196.236L222.56 184.255L215.428 110.051L90.7795 122.031L97.9115 196.236Z" fill="black"/>
<path opacity="0.1" d="M156.996 156.516L90.78 122.03L215.426 110.047L156.996 156.516Z" fill="#263238"/>
<path d="M141.911 81.3712L90.78 122.03L215.426 110.047L157.487 79.876C155.024 78.5927 152.242 78.051 149.477 78.3163C146.713 78.5817 144.084 79.6428 141.911 81.3712Z" fill="#0C918B"/>
<path opacity="0.2" d="M210.796 110.495L155.746 81.8248C153.889 80.8563 151.791 80.4473 149.705 80.6473C147.62 80.8473 145.638 81.6477 143.998 82.9516L95.4044 121.581L210.796 110.495Z" fill="#0C918B"/>
<path d="M187.776 109.582L204.645 114.089L205.051 118.297L156.996 156.516L102.539 128.155L101.727 119.739L187.776 109.582Z" fill="white"/>
<path d="M187.776 109.582L190.964 118.415L204.645 114.089" fill="#E0E0E0"/>
<path d="M187.776 109.582L189.415 116.866L204.645 114.089" fill="#F0F0F0"/>
<path d="M166.955 148.58L222.56 184.257L97.9142 196.235L145.702 150.62C148.503 147.948 152.121 146.294 155.976 145.924C159.83 145.554 163.696 146.49 166.955 148.58Z" fill="#0C918B"/>
</g>
<defs>
<clipPath id="clip0_26_2388">
<rect width="267" height="267" fill="white"/>
</clipPath>
</defs>
</svg>
