<svg width="14" height="16" viewBox="0 0 14 16" fill="none" xmlns="http://www.w3.org/2000/svg">
<g clip-path="url(#clip0_29_1763)">
<path d="M0.375 6H13.625C13.8312 6 14 6.16875 14 6.375V14.5C14 15.3281 13.3281 16 12.5 16H1.5C0.671875 16 0 15.3281 0 14.5V6.375C0 6.16875 0.16875 6 0.375 6ZM14 4.625V3.5C14 2.67188 13.3281 2 12.5 2H11V0.375C11 0.16875 10.8312 0 10.625 0H9.375C9.16875 0 9 0.16875 9 0.375V2H5V0.375C5 0.16875 4.83125 0 4.625 0H3.375C3.16875 0 3 0.16875 3 0.375V2H1.5C0.671875 2 0 2.67188 0 3.5V4.625C0 4.83125 0.16875 5 0.375 5H13.625C13.8312 5 14 4.83125 14 4.625Z" fill="#999999"/>
</g>
<defs>
<clipPath id="clip0_29_1763">
<rect width="14" height="16" fill="white"/>
</clipPath>
</defs>
</svg>
