<svg width="233" height="72" viewBox="0 0 233 72" fill="none" xmlns="http://www.w3.org/2000/svg">
<g clip-path="url(#clip0_96_983)">
<path d="M36 70.5C55.0538 70.5 70.5 55.0538 70.5 36C70.5 16.9462 55.0538 1.5 36 1.5C16.9462 1.5 1.5 16.9462 1.5 36C1.5 55.0538 16.9462 70.5 36 70.5Z" fill="#EAEAEA"/>
<path d="M36 1.5C34.9875 1.5 33.99 1.5525 33 1.635C41.5802 2.40685 49.5612 6.36089 55.3736 12.7196C61.1859 19.0782 64.409 27.3814 64.409 35.9963C64.409 44.6111 61.1859 52.9143 55.3736 59.2729C49.5612 65.6316 41.5802 69.5856 33 70.3575C33.99 70.44 34.9875 70.4925 36 70.4925C45.0609 70.3589 53.7054 66.6657 60.0657 60.2109C66.426 53.7562 69.9913 45.0581 69.9913 35.9963C69.9913 26.9344 66.426 18.2363 60.0657 11.7816C53.7054 5.3268 45.0609 1.63361 36 1.5Z" fill="#BACECE"/>
<path d="M36 70.5C55.0538 70.5 70.5 55.0538 70.5 36C70.5 16.9462 55.0538 1.5 36 1.5C16.9462 1.5 1.5 16.9462 1.5 36C1.5 55.0538 16.9462 70.5 36 70.5Z" stroke="#281A3B" stroke-width="4" stroke-linecap="round" stroke-linejoin="round"/>
<path d="M42.75 43.5H53.7225C54.3922 43.498 55.034 43.2311 55.5075 42.7575C55.9811 42.284 56.248 41.6422 56.25 40.9725V32.535C56.25 31.864 55.984 31.2203 55.5102 30.7451C55.0364 30.2699 54.3935 30.002 53.7225 30H42.75V19.035C42.75 18.364 42.484 17.7203 42.0102 17.2451C41.5364 16.7699 40.8935 16.502 40.2225 16.5H31.785C31.1127 16.5 30.4679 16.7671 29.9925 17.2425C29.5171 17.7179 29.25 18.3627 29.25 19.035V30H18.2775C17.6065 30.002 16.9636 30.2699 16.4898 30.7451C16.016 31.2203 15.75 31.864 15.75 32.535V40.9725C15.752 41.6422 16.0189 42.284 16.4925 42.7575C16.966 43.2311 17.6078 43.498 18.2775 43.5H29.25V54.4725C29.252 55.1422 29.5189 55.784 29.9925 56.2575C30.466 56.7311 31.1078 56.998 31.7775 57H40.215C40.886 57 41.5297 56.734 42.0049 56.2602C42.4801 55.7864 42.748 55.1435 42.75 54.4725V43.5Z" fill="#575072"/>
<path d="M42.75 43.5H53.7225C54.3922 43.498 55.034 43.2311 55.5075 42.7575C55.9811 42.284 56.248 41.6422 56.25 40.9725V32.535C56.25 31.864 55.984 31.2203 55.5102 30.7451C55.0364 30.2699 54.3935 30.002 53.7225 30H42.75V19.035C42.75 18.364 42.484 17.7203 42.0102 17.2451C41.5364 16.7699 40.8935 16.502 40.2225 16.5H31.785C31.1127 16.5 30.4679 16.7671 29.9925 17.2425C29.5171 17.7179 29.25 18.3627 29.25 19.035V30H18.2775C17.6065 30.002 16.9636 30.2699 16.4898 30.7451C16.016 31.2203 15.75 31.864 15.75 32.535V40.9725C15.752 41.6422 16.0189 42.284 16.4925 42.7575C16.966 43.2311 17.6078 43.498 18.2775 43.5H29.25V54.4725C29.252 55.1422 29.5189 55.784 29.9925 56.2575C30.466 56.7311 31.1078 56.998 31.7775 57H40.215C40.886 57 41.5297 56.734 42.0049 56.2602C42.4801 55.7864 42.748 55.1435 42.75 54.4725V43.5Z" fill="#DE9928"/>
<path d="M42.75 43.5H53.7225C54.3922 43.498 55.034 43.2311 55.5075 42.7575C55.9811 42.284 56.248 41.6422 56.25 40.9725V32.535C56.25 31.864 55.984 31.2203 55.5102 30.7451C55.0364 30.2699 54.3935 30.002 53.7225 30H42.75V19.035C42.75 18.364 42.484 17.7203 42.0102 17.2451C41.5364 16.7699 40.8935 16.502 40.2225 16.5H31.785C31.1127 16.5 30.4679 16.7671 29.9925 17.2425C29.5171 17.7179 29.25 18.3627 29.25 19.035V30H18.2775C17.6065 30.002 16.9636 30.2699 16.4898 30.7451C16.016 31.2203 15.75 31.864 15.75 32.535V40.9725C15.752 41.6422 16.0189 42.284 16.4925 42.7575C16.966 43.2311 17.6078 43.498 18.2775 43.5H29.25V54.4725C29.252 55.1422 29.5189 55.784 29.9925 56.2575C30.466 56.7311 31.1078 56.998 31.7775 57H40.215C40.886 57 41.5297 56.734 42.0049 56.2602C42.4801 55.7864 42.748 55.1435 42.75 54.4725V43.5Z" stroke="#281A3B" stroke-width="4" stroke-linecap="round" stroke-linejoin="round"/>
</g>
<path d="M94.3516 26.4258L86.6172 50H80.3867L90.9531 21.5625H94.918L94.3516 26.4258ZM100.777 50L93.0234 26.4258L92.3984 21.5625H96.4023L107.027 50H100.777ZM100.426 39.4141V44.0039H85.4062V39.4141H100.426ZM115.25 20V50H109.605V20H115.25ZM129.625 50.3906C127.984 50.3906 126.513 50.1302 125.211 49.6094C123.909 49.0755 122.802 48.3398 121.891 47.4023C120.992 46.4648 120.302 45.3776 119.82 44.1406C119.339 42.8906 119.098 41.5625 119.098 40.1562V39.375C119.098 37.7734 119.326 36.3086 119.781 34.9805C120.237 33.6523 120.888 32.5 121.734 31.5234C122.594 30.5469 123.635 29.7982 124.859 29.2773C126.083 28.7435 127.464 28.4766 129 28.4766C130.497 28.4766 131.826 28.724 132.984 29.2188C134.143 29.7135 135.113 30.4167 135.895 31.3281C136.689 32.2396 137.288 33.3333 137.691 34.6094C138.095 35.8724 138.297 37.2786 138.297 38.8281V41.1719H121.5V37.4219H132.77V36.9922C132.77 36.2109 132.626 35.5143 132.34 34.9023C132.066 34.2773 131.65 33.7826 131.09 33.418C130.53 33.0534 129.814 32.8711 128.941 32.8711C128.199 32.8711 127.561 33.0339 127.027 33.3594C126.493 33.6849 126.057 34.1406 125.719 34.7266C125.393 35.3125 125.146 36.0026 124.977 36.7969C124.82 37.5781 124.742 38.4375 124.742 39.375V40.1562C124.742 41.0026 124.859 41.7839 125.094 42.5C125.341 43.2161 125.686 43.8346 126.129 44.3555C126.585 44.8763 127.132 45.2799 127.77 45.5664C128.421 45.8529 129.156 45.9961 129.977 45.9961C130.992 45.9961 131.936 45.8008 132.809 45.4102C133.694 45.0065 134.456 44.401 135.094 43.5938L137.828 46.5625C137.385 47.2005 136.78 47.8125 136.012 48.3984C135.257 48.9844 134.345 49.4661 133.277 49.8438C132.21 50.2083 130.992 50.3906 129.625 50.3906ZM147.125 33.4766V50H141.5V28.8672H146.793L147.125 33.4766ZM153.492 28.7305L153.395 33.9453C153.121 33.9062 152.789 33.8737 152.398 33.8477C152.021 33.8086 151.676 33.7891 151.363 33.7891C150.569 33.7891 149.879 33.8932 149.293 34.1016C148.72 34.2969 148.238 34.5898 147.848 34.9805C147.47 35.3711 147.184 35.8464 146.988 36.4062C146.806 36.9661 146.702 37.6042 146.676 38.3203L145.543 37.9688C145.543 36.6016 145.68 35.3451 145.953 34.1992C146.227 33.0404 146.624 32.0312 147.145 31.1719C147.678 30.3125 148.329 29.6484 149.098 29.1797C149.866 28.7109 150.745 28.4766 151.734 28.4766C152.047 28.4766 152.366 28.5026 152.691 28.5547C153.017 28.5938 153.284 28.6523 153.492 28.7305ZM161.773 33.2422V50H156.129V28.8672H161.422L161.773 33.2422ZM160.992 38.6914H159.43C159.43 37.2201 159.605 35.8659 159.957 34.6289C160.322 33.3789 160.849 32.2982 161.539 31.3867C162.242 30.4622 163.108 29.7461 164.137 29.2383C165.165 28.7305 166.357 28.4766 167.711 28.4766C168.648 28.4766 169.508 28.6198 170.289 28.9062C171.07 29.1797 171.741 29.6159 172.301 30.2148C172.874 30.8008 173.316 31.569 173.629 32.5195C173.941 33.457 174.098 34.5833 174.098 35.8984V50H168.473V36.5234C168.473 35.5599 168.342 34.8177 168.082 34.2969C167.822 33.776 167.451 33.4115 166.969 33.2031C166.5 32.9948 165.934 32.8906 165.27 32.8906C164.54 32.8906 163.902 33.0404 163.355 33.3398C162.822 33.6393 162.379 34.056 162.027 34.5898C161.676 35.1107 161.415 35.7227 161.246 36.4258C161.077 37.1289 160.992 37.8841 160.992 38.6914ZM173.57 38.0469L171.559 38.3008C171.559 36.9206 171.728 35.638 172.066 34.4531C172.418 33.2682 172.932 32.2266 173.609 31.3281C174.299 30.4297 175.152 29.7331 176.168 29.2383C177.184 28.7305 178.355 28.4766 179.684 28.4766C180.699 28.4766 181.624 28.6263 182.457 28.9258C183.29 29.2122 184 29.6745 184.586 30.3125C185.185 30.9375 185.641 31.7578 185.953 32.7734C186.279 33.7891 186.441 35.0326 186.441 36.5039V50H180.797V36.5039C180.797 35.5273 180.667 34.7852 180.406 34.2773C180.159 33.7565 179.794 33.3984 179.312 33.2031C178.844 32.9948 178.284 32.8906 177.633 32.8906C176.956 32.8906 176.363 33.0273 175.855 33.3008C175.348 33.5612 174.924 33.9258 174.586 34.3945C174.247 34.8633 173.993 35.4102 173.824 36.0352C173.655 36.6471 173.57 37.3177 173.57 38.0469ZM200.523 50.3906C198.883 50.3906 197.411 50.1302 196.109 49.6094C194.807 49.0755 193.701 48.3398 192.789 47.4023C191.891 46.4648 191.201 45.3776 190.719 44.1406C190.237 42.8906 189.996 41.5625 189.996 40.1562V39.375C189.996 37.7734 190.224 36.3086 190.68 34.9805C191.135 33.6523 191.786 32.5 192.633 31.5234C193.492 30.5469 194.534 29.7982 195.758 29.2773C196.982 28.7435 198.362 28.4766 199.898 28.4766C201.396 28.4766 202.724 28.724 203.883 29.2188C205.042 29.7135 206.012 30.4167 206.793 31.3281C207.587 32.2396 208.186 33.3333 208.59 34.6094C208.993 35.8724 209.195 37.2786 209.195 38.8281V41.1719H192.398V37.4219H203.668V36.9922C203.668 36.2109 203.525 35.5143 203.238 34.9023C202.965 34.2773 202.548 33.7826 201.988 33.418C201.428 33.0534 200.712 32.8711 199.84 32.8711C199.098 32.8711 198.46 33.0339 197.926 33.3594C197.392 33.6849 196.956 34.1406 196.617 34.7266C196.292 35.3125 196.044 36.0026 195.875 36.7969C195.719 37.5781 195.641 38.4375 195.641 39.375V40.1562C195.641 41.0026 195.758 41.7839 195.992 42.5C196.24 43.2161 196.585 43.8346 197.027 44.3555C197.483 44.8763 198.03 45.2799 198.668 45.5664C199.319 45.8529 200.055 45.9961 200.875 45.9961C201.891 45.9961 202.835 45.8008 203.707 45.4102C204.592 45.0065 205.354 44.401 205.992 43.5938L208.727 46.5625C208.284 47.2005 207.678 47.8125 206.91 48.3984C206.155 48.9844 205.243 49.4661 204.176 49.8438C203.108 50.2083 201.891 50.3906 200.523 50.3906ZM224.879 45.3906V20H230.543V50H225.445L224.879 45.3906ZM211.52 39.6875V39.2773C211.52 37.6628 211.702 36.1979 212.066 34.8828C212.431 33.5547 212.965 32.4154 213.668 31.4648C214.371 30.5143 215.237 29.7786 216.266 29.2578C217.294 28.737 218.466 28.4766 219.781 28.4766C221.018 28.4766 222.099 28.737 223.023 29.2578C223.961 29.7786 224.755 30.5208 225.406 31.4844C226.07 32.4349 226.604 33.5612 227.008 34.8633C227.411 36.1523 227.704 37.5651 227.887 39.1016V40C227.704 41.4714 227.411 42.8385 227.008 44.1016C226.604 45.3646 226.07 46.4714 225.406 47.4219C224.755 48.3594 223.961 49.0885 223.023 49.6094C222.086 50.1302 220.992 50.3906 219.742 50.3906C218.427 50.3906 217.255 50.1237 216.227 49.5898C215.211 49.056 214.352 48.3073 213.648 47.3438C212.958 46.3802 212.431 45.2474 212.066 43.9453C211.702 42.6432 211.52 41.224 211.52 39.6875ZM217.145 39.2773V39.6875C217.145 40.5599 217.21 41.3737 217.34 42.1289C217.483 42.8841 217.711 43.5547 218.023 44.1406C218.349 44.7135 218.766 45.1628 219.273 45.4883C219.794 45.8008 220.426 45.957 221.168 45.957C222.132 45.957 222.926 45.7422 223.551 45.3125C224.176 44.8698 224.651 44.2643 224.977 43.4961C225.315 42.7279 225.51 41.8424 225.562 40.8398V38.2812C225.523 37.4609 225.406 36.7253 225.211 36.0742C225.029 35.4102 224.755 34.8438 224.391 34.375C224.039 33.9062 223.596 33.5417 223.062 33.2812C222.542 33.0208 221.923 32.8906 221.207 32.8906C220.478 32.8906 219.853 33.0599 219.332 33.3984C218.811 33.724 218.388 34.1732 218.062 34.7461C217.75 35.319 217.516 35.9961 217.359 36.7773C217.216 37.5456 217.145 38.3789 217.145 39.2773Z" fill="black"/>
<defs>
<clipPath id="clip0_96_983">
<rect width="72" height="72" fill="white"/>
</clipPath>
</defs>
</svg>
