<svg width="16" height="16" viewBox="0 0 16 16" fill="none" xmlns="http://www.w3.org/2000/svg">
<path d="M3.11136 1.5C1.39191 1.5 0.000244141 2.95379 0.000244141 4.75V11.25C0.000244141 13.0462 1.39191 14.5 3.11136 14.5C4.8308 14.5 6.22247 13.0462 6.22247 11.25V4.75C6.22247 2.95379 4.8308 1.5 3.11136 1.5ZM4.44469 8H1.77802V4.75C1.77802 3.98103 2.37524 3.35714 3.11136 3.35714C3.84747 3.35714 4.44469 3.98103 4.44469 4.75V8ZM8.32524 7.13817C8.22802 7.03661 8.06413 7.04821 7.98358 7.16138C6.72524 8.975 6.86135 11.517 8.42524 13.1507C9.98913 14.7844 12.4225 14.9266 14.1586 13.6121C14.2697 13.5279 14.278 13.3567 14.1808 13.2551L8.32524 7.13817ZM14.7086 6.58683C13.1447 4.95312 10.7114 4.81094 8.97524 6.12545C8.86413 6.2096 8.8558 6.3808 8.95302 6.48237L14.8086 12.5993C14.9058 12.7009 15.0697 12.6893 15.1502 12.5761C16.4086 10.7596 16.2752 8.22054 14.7086 6.58683Z" fill="#999999"/>
</svg>
