<svg width="16" height="14" viewBox="0 0 16 14" fill="none" xmlns="http://www.w3.org/2000/svg">
<path d="M3.11136 0.5C1.39191 0.5 0.000244141 1.95379 0.000244141 3.75V10.25C0.000244141 12.0462 1.39191 13.5 3.11136 13.5C4.8308 13.5 6.22247 12.0462 6.22247 10.25V3.75C6.22247 1.95379 4.8308 0.5 3.11136 0.5ZM4.44469 7H1.77802V3.75C1.77802 2.98103 2.37524 2.35714 3.11136 2.35714C3.84747 2.35714 4.44469 2.98103 4.44469 3.75V7ZM8.32524 6.13817C8.22802 6.03661 8.06413 6.04821 7.98358 6.16138C6.72524 7.975 6.86135 10.517 8.42524 12.1507C9.98913 13.7844 12.4225 13.9266 14.1586 12.6121C14.2697 12.5279 14.278 12.3567 14.1808 12.2551L8.32524 6.13817ZM14.7086 5.58683C13.1447 3.95312 10.7114 3.81094 8.97524 5.12545C8.86413 5.2096 8.8558 5.3808 8.95302 5.48237L14.8086 11.5993C14.9058 11.7009 15.0697 11.6893 15.1502 11.5761C16.4086 9.7596 16.2752 7.22054 14.7086 5.58683Z" fill="#0C918B"/>
</svg>
